<svg width="14" height="14" viewBox="0 0 14 14" fill="none" xmlns="http://www.w3.org/2000/svg">
<path d="M7.65975 4.29872C7.69358 4.33168 7.83825 4.45613 7.95725 4.57206C8.70567 5.25171 9.93067 7.02473 10.3046 7.95272C10.3647 8.09365 10.4918 8.44996 10.5 8.64033C10.5 8.82275 10.458 8.99664 10.3728 9.16258C10.2538 9.36943 10.0666 9.53536 9.8455 9.62629C9.69208 9.68482 9.233 9.77574 9.22483 9.77574C8.72258 9.86667 7.9065 9.91668 7.00467 9.91668C6.14542 9.91668 5.36258 9.86667 4.85275 9.79222C4.84458 9.7837 4.27408 9.69278 4.07867 9.59333C3.72167 9.41091 3.5 9.05461 3.5 8.67329V8.64033C3.50875 8.392 3.73042 7.86975 3.73858 7.86975C4.11308 6.99177 5.278 5.25967 6.05208 4.56354C6.05208 4.56354 6.251 4.36748 6.37525 4.28224C6.55375 4.14926 6.77483 4.08334 6.99592 4.08334C7.24267 4.08334 7.4725 4.15779 7.65975 4.29872Z" fill="#585858"/>
</svg>
