<svg width="20" height="20" viewBox="0 0 20 20" fill="none" xmlns="http://www.w3.org/2000/svg">
<path d="M17.9423 7.39582H15.9934L15.4517 6.04165C14.8951 4.6494 13.5666 3.74998 12.067 3.74998H7.93285C6.4335 3.74998 5.10472 4.6494 4.54776 6.04165L4.00609 7.39582H2.05752C1.80329 7.39582 1.61676 7.63476 1.67861 7.88118L1.87393 8.66243C1.91722 8.83625 2.07347 8.95832 2.25283 8.95832H2.90615C2.46898 9.34016 2.1874 9.89518 2.1874 10.5208V12.0833C2.1874 12.6081 2.38792 13.0817 2.70824 13.4482V15.2083C2.70824 15.7835 3.17471 16.25 3.7499 16.25H4.79157C5.36677 16.25 5.83324 15.7835 5.83324 15.2083V14.1667H14.1666V15.2083C14.1666 15.7835 14.6331 16.25 15.2083 16.25H16.2499C16.8251 16.25 17.2916 15.7835 17.2916 15.2083V13.4482C17.6119 13.082 17.8124 12.6084 17.8124 12.0833V10.5208C17.8124 9.89518 17.5308 9.34016 17.094 8.95832H17.7473C17.9267 8.95832 18.0829 8.83625 18.1262 8.66243L18.3215 7.88118C18.3831 7.63476 18.1965 7.39582 17.9423 7.39582ZM6.482 6.81542C6.71931 6.22232 7.29386 5.83332 7.93285 5.83332H12.067C12.706 5.83332 13.2805 6.22232 13.5178 6.81542L14.1666 8.43749H5.83324L6.482 6.81542ZM4.79157 12.0768C4.16657 12.0768 3.7499 11.6615 3.7499 11.0384C3.7499 10.4154 4.16657 9.99999 4.79157 9.99999C5.41657 9.99999 6.35407 10.9346 6.35407 11.5576C6.35407 12.1807 5.41657 12.0768 4.79157 12.0768ZM15.2083 12.0768C14.5833 12.0768 13.6458 12.1807 13.6458 11.5576C13.6458 10.9346 14.5833 9.99999 15.2083 9.99999C15.8333 9.99999 16.2499 10.4154 16.2499 11.0384C16.2499 11.6615 15.8333 12.0768 15.2083 12.0768Z" fill="#585858"/>
</svg>
