<svg width="18" height="18" viewBox="0 0 18 18" fill="none" xmlns="http://www.w3.org/2000/svg">
<path opacity="0.4" d="M12.8963 0.666656H5.11113C2.27409 0.666656 0.666687 2.27406 0.666687 5.1111V12.8889C0.666687 15.7259 2.27409 17.3333 5.11113 17.3333H12.8963C15.7334 17.3333 17.3334 15.7259 17.3334 12.8889V5.1111C17.3334 2.27406 15.7334 0.666656 12.8963 0.666656Z" fill="#808080"/>
<path d="M5.14061 6.80746C4.76283 6.80746 4.45172 7.11858 4.45172 7.50376V13.2297C4.45172 13.6075 4.76283 13.9186 5.14061 13.9186C5.5258 13.9186 5.83691 13.6075 5.83691 13.2297V7.50376C5.83691 7.11858 5.5258 6.80746 5.14061 6.80746Z" fill="#808080"/>
<path d="M9.02953 4.07413C8.65175 4.07413 8.34064 4.38524 8.34064 4.77042V13.2297C8.34064 13.6075 8.65175 13.9186 9.02953 13.9186C9.41471 13.9186 9.72582 13.6075 9.72582 13.2297V4.77042C9.72582 4.38524 9.41471 4.07413 9.02953 4.07413Z" fill="#808080"/>
<path d="M12.8666 9.82968C12.4814 9.82968 12.1703 10.1408 12.1703 10.526V13.2297C12.1703 13.6075 12.4814 13.9186 12.8592 13.9186C13.2444 13.9186 13.5555 13.6075 13.5555 13.2297V10.526C13.5555 10.1408 13.2444 9.82968 12.8666 9.82968Z" fill="#808080"/>
</svg>
