<svg width="25" height="31" viewBox="0 0 25 31" fill="none" xmlns="http://www.w3.org/2000/svg">
<path fill-rule="evenodd" clip-rule="evenodd" d="M6.32952 10.7077H18.6705C22.1085 10.7077 24.8959 13.4336 24.8959 16.7957V23.9953C24.8959 27.3574 22.1085 30.0833 18.6705 30.0833H6.32952C2.89158 30.0833 0.104187 27.3574 0.104187 23.9953V16.7957C0.104187 13.4336 2.89158 10.7077 6.32952 10.7077ZM12.4926 23.2721C13.2187 23.2721 13.7967 22.707 13.7967 21.9969V18.7797C13.7967 18.084 13.2187 17.5189 12.4926 17.5189C11.7813 17.5189 11.2034 18.084 11.2034 18.7797V21.9969C11.2034 22.707 11.7813 23.2721 12.4926 23.2721Z" fill="#AEAEAE"/>
<path opacity="0.4" d="M20.5541 8.78576V10.9306C20.0355 10.7856 19.4872 10.7132 18.9241 10.7132H17.9609V8.78576C17.9609 5.84391 15.5158 3.45275 12.5076 3.45275C9.4994 3.45275 7.05432 5.82942 7.0395 8.75678V10.7132H6.0911C5.51317 10.7132 4.96488 10.7856 4.44623 10.9451V8.78576C4.46105 4.43819 8.06199 0.916664 12.478 0.916664C16.9532 0.916664 20.5541 4.43819 20.5541 8.78576Z" fill="#AEAEAE"/>
</svg>
