<svg width="20" height="20" viewBox="0 0 20 20" fill="none" xmlns="http://www.w3.org/2000/svg">
<path opacity="0.4" d="M3.93561 17.6394C3.92478 17.6394 3.91478 17.6394 3.90311 17.6386C3.64061 17.6252 3.38311 17.5686 3.13811 17.4694C1.93228 16.9794 1.35061 15.6019 1.83978 14.3969L7.94061 3.70858C8.15061 3.32858 8.46895 3.01025 8.85728 2.79525C9.99478 2.16525 11.4331 2.57942 12.0623 3.71608L18.1231 14.3227C18.2581 14.6402 18.3156 14.8986 18.3298 15.1619C18.3623 15.7919 18.1473 16.3961 17.7256 16.8636C17.3039 17.3311 16.7248 17.6069 16.0956 17.6386L3.99561 17.6394H3.93561Z" fill="#7F7F7F"/>
<path fill-rule="evenodd" clip-rule="evenodd" d="M9.27039 8.35067C9.27039 7.949 9.59789 7.6215 9.99955 7.6215C10.4012 7.6215 10.7287 7.949 10.7287 8.35067V10.7073C10.7287 11.1098 10.4012 11.4365 9.99955 11.4365C9.59789 11.4365 9.27039 11.1098 9.27039 10.7073V8.35067ZM9.27039 13.5582C9.27039 13.1541 9.59789 12.8249 9.99955 12.8249C10.4012 12.8249 10.7287 13.1499 10.7287 13.5491C10.7287 13.9599 10.4012 14.2874 9.99955 14.2874C9.59789 14.2874 9.27039 13.9599 9.27039 13.5582Z" fill="#7F7F7F"/>
</svg>
