<svg width="21" height="20" viewBox="0 0 21 20" fill="none" xmlns="http://www.w3.org/2000/svg">
<path opacity="0.4" d="M5.69839 4.446C5.69839 1.995 7.83865 0 10.4692 0H15.6981C18.3222 0 20.457 1.99 20.457 4.436V15.552C20.457 18.004 18.3179 20 15.6873 20H10.4585C7.83436 20 5.69839 18.009 5.69839 15.562V14.622V4.446Z" fill="#9F9F9F"/>
<path d="M14.781 9.4538L11.6972 6.5448C11.3785 6.2448 10.8656 6.2448 10.5479 6.5468C10.2313 6.8488 10.2323 7.3358 10.55 7.6358L12.2386 9.2288H1.52749C1.07895 9.2288 0.714844 9.5738 0.714844 9.9998C0.714844 10.4248 1.07895 10.7688 1.52749 10.7688H12.2386L10.55 12.3628C10.2323 12.6628 10.2313 13.1498 10.5479 13.4518C10.7073 13.6028 10.9152 13.6788 11.1241 13.6788C11.331 13.6788 11.5389 13.6028 11.6972 13.4538L14.781 10.5448C14.9341 10.3998 15.0206 10.2038 15.0206 9.9998C15.0206 9.7948 14.9341 9.5988 14.781 9.4538Z" fill="#9F9F9F"/>
</svg>
