<svg width="12" height="12" viewBox="0 0 12 12" fill="none" xmlns="http://www.w3.org/2000/svg">
<path opacity="0.4" d="M1 3.2235C1 1.998 2.01512 1 3.26227 1H5.74282C6.98743 1 8 1.995 8 3.2185V8.7765C8 10.0025 6.98488 11 5.73723 11H3.25769C2.01258 11 1 10.005 1 8.7815V8.3115V3.2235Z" fill="#7F7F7F"/>
<path d="M10.8895 5.7274L9.46659 4.2729C9.31953 4.1229 9.08287 4.1229 8.93629 4.2739C8.7902 4.4249 8.79069 4.6684 8.93726 4.8184L9.71689 5.6149H8.9694H4.77425C4.56729 5.6149 4.39929 5.7874 4.39929 5.9999C4.39929 6.2129 4.56729 6.3849 4.77425 6.3849H9.71689L8.93726 7.1814C8.79069 7.3314 8.7902 7.5749 8.93629 7.7259C9.00982 7.8014 9.10575 7.8394 9.20217 7.8394C9.29761 7.8394 9.39355 7.8014 9.46659 7.7269L10.8895 6.2729C10.9601 6.2004 11 6.1024 11 5.9999C11 5.8979 10.9601 5.7999 10.8895 5.7274Z" fill="#7F7F7F"/>
</svg>
