<svg width="20" height="16" viewBox="0 0 20 16" fill="none" xmlns="http://www.w3.org/2000/svg">
<g clip-path="url(#clip0)">
<path d="M10.0209 2C-3.81035 2 -1.15316 14 5.06903 14C6.3159 14 7.48997 13.3534 8.2384 12.2544L9.04247 11.0734C9.53184 10.355 10.5103 10.355 10.9997 11.0734L11.8037 12.2544C12.5518 13.3534 13.7259 14 14.9728 14C20.9059 14 24.055 2 10.0209 2ZM5.74997 9.63625C4.46684 9.63625 3.63247 8.83437 3.24747 8.35344C3.08403 8.14937 3.08403 7.85062 3.24747 7.64625C3.63247 7.165 4.46653 6.36344 5.74997 6.36344C7.0334 6.36344 7.86747 7.16531 8.25247 7.64625C8.4159 7.85031 8.4159 8.14906 8.25247 8.35344C7.86747 8.83469 7.03309 9.63625 5.74997 9.63625ZM14.25 9.63625C12.9668 9.63625 12.1325 8.83437 11.7475 8.35344C11.584 8.14937 11.584 7.85062 11.7475 7.64625C12.1325 7.165 12.9665 6.36344 14.25 6.36344C15.5334 6.36344 16.3675 7.16531 16.7525 7.64625C16.9159 7.85031 16.9159 8.14906 16.7525 8.35344C16.3675 8.83469 15.5331 9.63625 14.25 9.63625Z" fill="#585858"/>
</g>
<defs>
<clipPath id="clip0">
<rect width="20" height="16" fill="white"/>
</clipPath>
</defs>
</svg>
