<svg width="20" height="20" viewBox="0 0 20 20" fill="none" xmlns="http://www.w3.org/2000/svg">
<path opacity="0.4" d="M15.674 7.51751C15.2978 7.51751 14.7994 7.50917 14.1789 7.50917C12.6656 7.50917 11.4213 6.25667 11.4213 4.72917V2.04917C11.4213 1.83834 11.253 1.66667 11.0442 1.66667H6.63638C4.57933 1.66667 2.91669 3.35501 2.91669 5.42417V14.4033C2.91669 16.5742 4.65854 18.3333 6.808 18.3333H13.3719C15.4215 18.3333 17.0834 16.6558 17.0834 14.585V7.89251C17.0834 7.68084 16.9159 7.51001 16.7063 7.51084C16.3539 7.51334 15.9315 7.51751 15.674 7.51751Z" fill="#7F7F7F"/>
<path opacity="0.4" d="M13.4033 2.13941C13.1542 1.88025 12.7192 2.05858 12.7192 2.41775V4.61525C12.7192 5.53691 13.4783 6.29525 14.4 6.29525C14.9808 6.30191 15.7875 6.30358 16.4725 6.30191C16.8233 6.30108 17.0017 5.88191 16.7583 5.62858C15.8792 4.71441 14.305 3.07608 13.4033 2.13941Z" fill="#7F7F7F"/>
<path fill-rule="evenodd" clip-rule="evenodd" d="M7.47828 9.48967H10.2991C10.6416 9.48967 10.9199 9.21217 10.9199 8.86967C10.9199 8.52717 10.6416 8.24884 10.2991 8.24884H7.47828C7.13578 8.24884 6.85828 8.52717 6.85828 8.86967C6.85828 9.21217 7.13578 9.48967 7.47828 9.48967ZM7.47838 13.6515H12.015C12.3575 13.6515 12.6359 13.374 12.6359 13.0315C12.6359 12.689 12.3575 12.4107 12.015 12.4107H7.47838C7.13588 12.4107 6.85838 12.689 6.85838 13.0315C6.85838 13.374 7.13588 13.6515 7.47838 13.6515Z" fill="#7F7F7F"/>
</svg>
