<svg width="20" height="20" viewBox="0 0 20 20" fill="none" xmlns="http://www.w3.org/2000/svg">
<path d="M11.5606 4.79121C12.4231 4.79121 13.1229 4.09144 13.1229 3.22894C13.1229 2.36643 12.4231 1.66666 11.5606 1.66666C10.6981 1.66666 9.99832 2.36643 9.99832 3.22894C9.99832 4.09144 10.6981 4.79121 11.5606 4.79121ZM14.6363 9.64401L13.878 9.25995L13.5623 8.30306C13.0838 6.85145 11.7494 5.83598 10.2359 5.83272C9.06421 5.82947 8.41652 6.16145 7.19925 6.65291C6.49623 6.93607 5.92014 7.47311 5.58165 8.1566L5.36358 8.59924C5.10971 9.11349 5.31476 9.7384 5.82576 9.99552C6.33349 10.2526 6.95189 10.0443 7.20902 9.5301L7.42708 9.08745C7.541 8.85962 7.72977 8.68061 7.96411 8.58622L8.83638 8.23471L8.34166 10.2103C8.17242 10.8873 8.35468 11.6066 8.82662 12.1241L10.7762 14.2527C11.0105 14.5098 11.1765 14.819 11.2612 15.1543L11.8568 17.54C11.9967 18.0965 12.563 18.4383 13.1196 18.2983C13.6762 18.1584 14.0179 17.5921 13.878 17.0355L13.1554 14.1388C13.0708 13.8036 12.9048 13.4911 12.6705 13.2372L11.1896 11.6196L11.7494 9.38363L11.9284 9.92066C12.1009 10.4447 12.4719 10.8776 12.9601 11.1249L13.7185 11.509C14.2262 11.7661 14.8446 11.5578 15.1017 11.0435C15.3524 10.5326 15.1473 9.90114 14.6363 9.64401ZM7.18623 14.2234C7.08208 14.4871 6.92585 14.7246 6.72406 14.9232L5.0967 16.5538C4.68985 16.9606 4.68985 17.6214 5.0967 18.0282C5.50354 18.435 6.16099 18.435 6.56783 18.0282L8.50114 16.0949C8.69968 15.8964 8.85591 15.6588 8.96332 15.3951L9.40271 14.295C7.60284 12.3324 8.14312 12.9345 7.85996 12.5472L7.18623 14.2234Z" fill="#585858"/>
</svg>
