<svg width="12" height="12" viewBox="0 0 12 12" fill="none" xmlns="http://www.w3.org/2000/svg">
<path d="M6.00599 7.41506C5.20375 7.41506 4.55481 6.79006 4.55481 6.00506C4.55481 5.22006 5.20375 4.59006 6.00599 4.59006C6.80822 4.59006 7.44184 5.22006 7.44184 6.00506C7.44184 6.79006 6.80822 7.41506 6.00599 7.41506Z" fill="#7F7F7F"/>
<path opacity="0.4" d="M10.615 7.18506C10.5179 7.03506 10.38 6.88506 10.2011 6.79006C10.058 6.72006 9.96606 6.60506 9.88431 6.47006C9.62371 6.04006 9.777 5.47506 10.2113 5.22006C10.7223 4.93506 10.8858 4.30006 10.5895 3.80506L10.2471 3.21506C9.95584 2.72006 9.31712 2.54506 8.81125 2.83506C8.36159 3.07506 7.78418 2.91506 7.52358 2.49006C7.44183 2.35006 7.39584 2.20006 7.40606 2.05006C7.42139 1.85506 7.36007 1.67006 7.26809 1.52006C7.07903 1.21006 6.73668 1.00006 6.35855 1.00006H5.63807C5.26506 1.01006 4.9227 1.21006 4.73364 1.52006C4.63655 1.67006 4.58035 1.85506 4.59057 2.05006C4.60079 2.20006 4.5548 2.35006 4.47304 2.49006C4.21244 2.91506 3.63504 3.07506 3.19048 2.83506C2.67951 2.54506 2.04589 2.72006 1.74952 3.21506L1.40717 3.80506C1.11591 4.30006 1.27942 4.93506 1.78529 5.22006C2.21962 5.47506 2.37292 6.04006 2.11743 6.47006C2.03056 6.60506 1.93859 6.72006 1.79551 6.79006C1.62178 6.88506 1.46849 7.03506 1.38673 7.18506C1.19767 7.49506 1.20789 7.88506 1.39695 8.21006L1.74952 8.81006C1.93859 9.13006 2.29116 9.33006 2.65907 9.33006C2.8328 9.33006 3.03719 9.28006 3.2007 9.18006C3.32845 9.09506 3.48174 9.06506 3.65036 9.06506C4.15623 9.06506 4.58035 9.48006 4.59057 9.97506C4.59057 10.5501 5.06067 11.0001 5.6534 11.0001H6.34833C6.93596 11.0001 7.40606 10.5501 7.40606 9.97506C7.42139 9.48006 7.8455 9.06506 8.35137 9.06506C8.51488 9.06506 8.66818 9.09506 8.80103 9.18006C8.96454 9.28006 9.16383 9.33006 9.34267 9.33006C9.70546 9.33006 10.058 9.13006 10.2471 8.81006L10.6048 8.21006C10.7887 7.87506 10.8041 7.49506 10.615 7.18506Z" fill="#7F7F7F"/>
</svg>
